<?xml version="1.0" standalone="no"?><!DOCTYPE svg PUBLIC "-//W3C//DTD SVG 1.1//EN" "http://www.w3.org/Graphics/SVG/1.1/DTD/svg11.dtd"><svg t="1588875108604" class="icon" viewBox="0 0 1066 1024" version="1.1" xmlns="http://www.w3.org/2000/svg" p-id="1166" xmlns:xlink="http://www.w3.org/1999/xlink" width="208.203125" height="200"><defs><style type="text/css"></style></defs><path d="M1043.114667 685.098667c-71.253333-16.469333-207.701333-65.962667-337.621334-111.232a706.048 706.048 0 0 0 68.394667-163.456l3.2-11.904c3.2-12.16 6.144-28.928 8.832-41.429334h-203.349333V305.664h255.701333V254.72h-255.573333V151.765333H480V254.72H224.597333v50.944h255.402667v51.413333H275.712v50.901334h381.44a458.368 458.368 0 0 1-48.469333 132.864c-17.749333-5.888-179.541333-53.461333-285.056-53.461334-84.437333 0-224.469333 64.597333-224.469334 182.442667 0 116.053333 80.554667 181.461333 224.426667 181.461333 138.154667 0 239.786667-69.077333 322.090667-191.445333 156.544 68.138667 301.952 143.36 397.482666 186.453333v-161.152z m0.426666-595.626667v842.88a89.813333 89.813333 0 0 1-89.557333 89.514667H111.146667a89.813333 89.813333 0 0 1-89.514667-89.514667V89.472A89.813333 89.813333 0 0 1 111.146667 0H954.026667a89.813333 89.813333 0 0 1 89.514666 89.514667zM325.461333 555.818667c90.154667 0 158.208 37.12 228.266667 65.365333-73.813333 89.770667-147.669333 159.744-228.266667 159.744-71.253333 0-189.269333-24.32-189.269333-111.146667 0.128-75.605333 104.618667-113.962667 189.269333-113.962666z" fill="#00A1E9" p-id="1167"></path></svg>