<?xml version="1.0" standalone="no"?><!DOCTYPE svg PUBLIC "-//W3C//DTD SVG 1.1//EN" "http://www.w3.org/Graphics/SVG/1.1/DTD/svg11.dtd"><svg t="1588875105990" class="icon" viewBox="0 0 1024 1024" version="1.1" xmlns="http://www.w3.org/2000/svg" p-id="1043" xmlns:xlink="http://www.w3.org/1999/xlink" width="200" height="200"><defs><style type="text/css"></style></defs><path d="M908.8 1024h-793.6C51.712 1024 0 972.288 0 908.8v-793.6C0 51.712 51.712 0 115.2 0h793.6C972.288 0 1024 51.712 1024 115.2v793.6c0 63.488-51.712 115.2-115.2 115.2z" fill="#40BA49" p-id="1044"></path><path d="M395.264 613.376c-13.312 7.168-30.208 1.024-38.4-12.288l-2.56-3.584-78.336-172.032c-1.024-1.024-1.024-3.584-1.024-6.144 0-3.584 1.024-7.168 3.584-9.728 2.56-2.56 6.144-4.608 9.728-3.584 3.584 0 6.144 1.024 8.192 2.56L389.12 474.624c10.752 7.168 25.088 9.728 38.4 4.608l436.224-194.048c-78.336-91.648-207.36-151.552-352.768-151.552-238.592 0-431.104 161.28-431.104 360.448 0 108.544 57.856 205.824 149.504 272.384 7.168 4.608 12.288 14.336 12.288 23.04 0 3.584 0 6.144-1.024 9.728l-19.456 72.192c-1.024 3.584-2.56 7.168-2.56 10.752 0 8.192 6.144 14.336 14.336 14.336 2.56 0 6.144-1.024 8.192-2.56L334.848 839.68c10.752-7.168 24.064-8.192 36.352-4.608 45.568 13.312 92.672 19.456 140.8 19.456 238.592 0 431.104-161.28 431.104-358.912 0-58.88-16.896-116.736-49.152-166.4l-496.128 283.136-2.56 1.024z" fill="#FFFFFF" p-id="1045"></path></svg>